<svg width="120" height="120" viewBox="0 0 120 120" fill="none" xmlns="http://www.w3.org/2000/svg">
<rect width="120" height="120" fill="white"/>
<g clip-path="url(#clip0_905_8)">
<path d="M34.8089 0.0337157C33.6864 0.214604 32.3394 0.800332 31.3896 1.52389C28.5142 3.70315 26.2864 8.32873 25.3452 14.0913C24.9912 16.2705 24.7494 19.294 24.7494 21.6025C24.7494 24.3245 25.0689 27.8043 25.5266 30.2075C25.6302 30.7416 25.682 31.2155 25.6388 31.2499C25.6043 31.2843 25.1812 31.6289 24.7062 32.0078C23.0829 33.2999 21.2264 35.2897 19.9485 37.1073C17.4962 40.5785 15.9073 44.5237 15.2425 48.796C14.9834 50.4843 14.9143 53.8953 15.1216 55.5836C15.5792 59.477 16.7536 62.7674 18.7655 65.7823L19.4217 66.7557L19.2318 67.0744C17.8847 69.3312 16.7363 72.5958 16.2009 75.7311C15.7778 78.2119 15.726 78.8751 15.726 82.2C15.726 85.5509 15.7692 86.2141 16.1664 88.5312C16.6413 91.3048 17.6084 94.242 18.6878 96.1974C19.0418 96.8348 19.9053 98.1613 20.0089 98.2303C20.0434 98.2474 19.9398 98.5661 19.7758 98.9365C18.5323 101.65 17.4703 105.259 17.0299 108.3C16.719 110.384 16.6758 111.056 16.6758 113.253C16.6758 116.052 16.8313 117.413 17.4184 119.644L17.5048 119.971H21.2005H24.9048L24.6631 119.515C23.1692 116.758 23.0311 111.642 24.3177 106.534C24.9048 104.174 25.5697 102.442 26.8131 100.056L27.5557 98.6092V97.722C27.5557 96.8951 27.5385 96.8004 27.2708 96.2577C27.0635 95.8442 26.7872 95.4911 26.295 95.0087C25.4575 94.199 24.853 93.3462 24.3695 92.2953C22.2453 87.6956 21.8308 80.865 23.3247 75.042C23.9464 72.6129 24.9739 70.451 26.0533 69.2709C26.7872 68.4611 27.1672 67.5568 27.1672 66.6178C27.1672 65.6445 26.8218 64.8434 26.0446 64.0079C23.8168 61.6305 22.4439 58.7362 21.9517 55.3683C21.2523 50.5704 22.5216 45.3419 25.4057 41.1988C28.2293 37.133 32.1926 34.523 36.6224 33.8254C37.6153 33.6617 39.4718 33.6875 40.508 33.8771C41.6392 34.0752 42.3472 34.0148 43.0726 33.6703C43.9706 33.2483 44.4196 32.7228 44.9463 31.5169C45.4126 30.4402 45.7753 29.8544 46.751 28.64C47.9254 27.1842 49.0565 26.1936 50.8697 24.9963C52.9422 23.6439 55.2995 22.662 57.6482 22.1882C58.5029 22.0159 58.9001 21.9901 60.4976 21.9901C62.0951 21.9901 62.4923 22.0159 63.3471 22.1882C66.7924 22.886 70.2119 24.6604 72.9405 27.1755C73.5276 27.7182 74.935 29.4582 75.3841 30.1818C75.5568 30.466 75.8591 31.069 76.0489 31.5169C76.5756 32.7228 77.0247 33.2483 77.9227 33.6703C78.6222 34.0062 79.356 34.0752 80.444 33.8942C82.1624 33.6014 83.4835 33.6273 85.1673 33.9718C90.9009 35.126 95.8918 39.8378 98.1023 46.1517C100.028 51.6902 99.4839 57.4873 96.6171 61.9147C96.1335 62.6642 95.65 63.2671 94.9506 64.0079C93.4395 65.6186 93.4395 67.617 94.942 69.2709C97.4116 71.967 98.9572 78.5996 98.4908 84.4482C98.1801 88.3072 97.187 91.7614 95.8227 93.7166C95.5809 94.0612 95.0802 94.6468 94.7002 95.0087C94.208 95.4911 93.9318 95.8442 93.7244 96.2577C93.4568 96.8004 93.4395 96.8951 93.4395 97.722V98.6092L94.1821 100.056C95.4256 102.442 96.0904 104.174 96.6775 106.534C97.947 111.573 97.8347 116.586 96.384 119.437C96.2631 119.678 96.1595 119.902 96.1595 119.928C96.1595 119.954 97.8088 119.971 99.8293 119.971H103.49L103.585 119.601C103.637 119.403 103.724 119.101 103.767 118.929C103.862 118.55 104.052 117.43 104.207 116.353C104.354 115.268 104.354 111.271 104.207 110.065C103.655 105.69 102.731 102.218 101.22 98.9365C101.055 98.5661 100.952 98.2474 100.986 98.2303C101.03 98.2044 101.271 97.8599 101.53 97.4722C103.413 94.6297 104.57 91.055 105.157 86.3347C105.312 85.0339 105.312 79.4437 105.157 78.1946C104.742 74.9732 104.242 72.7852 103.413 70.5715C103.067 69.6499 102.152 67.7032 101.764 67.0744L101.574 66.7557L102.23 65.7823C104.242 62.7674 105.416 59.477 105.874 55.5836C106.081 53.8953 106.012 50.4843 105.753 48.796C105.079 44.5149 103.499 40.5871 101.047 37.1073C99.7688 35.2897 97.9123 33.2999 96.2891 32.0078C95.8141 31.6289 95.3909 31.2843 95.3564 31.2499C95.3133 31.2155 95.3651 30.7416 95.4687 30.2075C96.5136 24.7723 96.4789 17.9934 95.3823 12.6959C94.4325 8.07894 92.7056 4.40948 90.4777 2.29051C88.699 0.602219 86.8857 -0.121334 84.7097 0.0164858C79.7188 0.309352 75.695 6.03748 74.1061 15.0646C73.847 16.5204 73.6226 18.226 73.6226 18.6911C73.6226 18.8719 73.588 19.0183 73.5449 19.0183C73.5016 19.0183 73.165 18.846 72.8023 18.6308C68.9512 16.3567 64.6682 15.1422 60.4976 15.1422C56.3271 15.1422 52.0441 16.3567 48.193 18.6308C47.8303 18.846 47.4936 19.0183 47.4504 19.0183C47.4073 19.0183 47.3726 18.8719 47.3726 18.6911C47.3726 18.2087 47.1395 16.4515 46.8892 15.0646C45.4471 6.95914 42.14 1.5928 37.7449 0.24044C37.1404 0.0595522 35.4221 -0.0610353 34.8089 0.0337157ZM36.277 7.04529C37.5203 8.02726 38.9019 10.8353 39.6963 13.9793C39.8431 14.5478 39.9985 15.2025 40.0417 15.4436C40.0762 15.6763 40.1712 16.2017 40.2489 16.6065C40.5857 18.4326 40.7411 20.4052 40.7584 22.8084L40.767 25.1772L40.1712 26.0557L39.5755 26.943H38.1852C36.5619 26.943 34.9471 27.1498 33.4015 27.5632C32.8489 27.701 32.3135 27.8389 32.2099 27.8647C32.0458 27.8992 32.0199 27.8475 31.925 27.1411C31.4155 23.308 31.4414 19.0615 32.0027 15.5297C32.6243 11.5933 34.0751 8.02726 35.4911 6.97639C35.8279 6.72658 35.8883 6.73519 36.277 7.04529ZM85.5127 6.98499C86.3676 7.61379 87.3088 9.28485 88.0082 11.4211C89.4157 15.6934 89.8129 21.5594 89.0703 27.1411C88.9753 27.8475 88.9494 27.8992 88.7853 27.8647C88.6818 27.8389 88.1464 27.701 87.5938 27.5632C86.0481 27.1498 84.4333 26.943 82.8101 26.943H81.4198L80.8241 26.0557L80.2282 25.1772L80.2368 22.8084C80.2542 19.4663 80.565 16.8563 81.3075 13.9535C82.0934 10.8353 83.4835 8.02726 84.7183 7.04529C85.1069 6.73519 85.1673 6.72658 85.5127 6.98499Z" fill="black"/>
<path d="M59.1592 50.3378C57.2853 50.5187 56.776 50.5876 55.8779 50.7686C54.4185 51.07 52.4671 51.7419 51.1114 52.4052C46.3969 54.705 43.1502 58.5381 42.1571 62.9741C41.9585 63.8528 41.9326 64.1456 41.9326 65.6272C41.9326 67.0915 41.9585 67.4102 42.1486 68.2457C43.4697 74.0428 48.8232 78.3239 55.7484 79.1077C57.2508 79.2714 63.7443 79.2714 65.2467 79.1077C70.8076 78.4789 75.5913 75.4727 77.7414 71.2519C78.3111 70.1236 78.5875 69.3913 78.8466 68.2457C79.0366 67.4102 79.0625 67.0915 79.0625 65.6272C79.0625 64.1456 79.0366 63.8528 78.838 62.9741C77.3958 56.5311 71.127 51.4577 63.442 50.4929C62.4404 50.3723 59.8154 50.2689 59.1592 50.3378ZM62.3885 55.0237C64.9532 55.2993 67.535 56.2124 69.6073 57.5906C70.7212 58.3314 72.2928 59.8818 72.9662 60.8983C73.7952 62.1558 74.27 63.4393 74.486 64.9984C74.5809 65.7134 74.5292 66.256 74.27 67.4102C73.8642 69.1329 72.6035 70.9332 70.9025 72.1908C70.108 72.7679 68.4589 73.6036 67.4486 73.9308C65.5317 74.5423 64.2796 74.6543 59.8067 74.6199C56.8882 74.5941 56.37 74.5682 55.5325 74.4132C52.6744 73.8791 50.4121 72.7421 48.7715 71.0108C47.4416 69.6153 46.8372 68.3406 46.5091 66.2819C46.3624 65.3257 46.6386 63.7408 47.1999 62.4056C47.8821 60.7776 49.6436 58.7535 51.3878 57.5906C53.4083 56.2468 56.0679 55.2908 58.5115 55.0324C59.4527 54.929 61.4473 54.9289 62.3885 55.0237Z" fill="black"/>
<path d="M57.1992 61.3119C56.5429 61.665 56.0852 62.5608 56.2234 63.224C56.3788 63.9389 57.0091 64.6626 57.9935 65.257C58.5203 65.5757 58.5548 65.6187 58.5807 65.9373C58.5979 66.1269 58.5289 66.6696 58.4339 67.152C58.3303 67.6256 58.2525 68.1253 58.2525 68.2631C58.2612 68.6335 58.6066 69.2365 58.9692 69.5293C59.2888 69.7877 59.3492 69.7963 60.2472 69.8222C61.0676 69.848 61.2403 69.8307 61.5683 69.6758C62.4146 69.2622 62.6304 68.5043 62.3195 67.0485C62.0605 65.8341 62.1123 65.6445 62.76 65.2741C63.4421 64.8779 64.1675 64.1802 64.3833 63.7064C64.7978 62.802 64.4178 61.777 63.5025 61.3031C63.2781 61.1912 63.0017 61.1396 62.5959 61.1396C61.9656 61.1396 61.5597 61.286 60.8171 61.7597L60.394 62.0268L60.1264 61.8631C59.0298 61.217 58.8312 61.1396 58.1662 61.1482C57.6913 61.1482 57.4323 61.1912 57.1992 61.3119Z" fill="black"/>
<path d="M36.2337 51.3113C34.7054 51.7936 33.5655 52.9134 32.9784 54.507C32.6935 55.2651 32.5553 56.4624 32.6762 57.1083C32.9611 58.6502 34.2304 60.0543 35.6725 60.4419C37.4858 60.9156 38.8414 60.6055 40.0417 59.4169C40.7411 58.7364 41.1211 58.142 41.501 57.1772C41.7772 56.4968 41.7946 56.3763 41.7946 55.4115L41.8032 54.3779L41.4406 53.6371C40.8619 52.4656 39.8172 51.5955 38.6083 51.2768C37.9261 51.1046 36.8295 51.1133 36.2337 51.3113Z" fill="black"/>
<path d="M82.3525 51.2855C81.1695 51.6042 80.116 52.4827 79.5547 53.637L79.1921 54.3778L79.2007 55.4115C79.2007 56.3762 79.2181 56.4968 79.4943 57.1772C79.8743 58.142 80.2542 58.7363 80.9536 59.4169C82.1538 60.6055 83.5095 60.9156 85.3229 60.4419C86.3677 60.1662 87.4124 59.2876 87.9133 58.2625C88.345 57.3926 88.4486 56.7638 88.3105 55.7732C87.9911 53.5078 86.6612 51.8626 84.6838 51.2855C84.1053 51.1132 82.9828 51.1132 82.3525 51.2855Z" fill="black"/>
</g>
<defs>
<clipPath id="clip0_905_8">
<rect width="90.9953" height="120" fill="white" transform="translate(15)"/>
</clipPath>
</defs>
</svg>
